<svg width="25" height="25" viewBox="0 0 25 25" fill="none" xmlns="http://www.w3.org/2000/svg">
    <path
        d="M12.4207 0.0459595L13.4863 1.22631L14.7617 0.276536L15.5766 1.6421L17.0129 0.959405L17.5457 2.45771L19.0875 2.06832L19.3178 3.64179L20.9059 3.56068L20.8248 5.14884L22.3983 5.37912L22.0089 6.92093L23.5072 7.45376L22.8245 8.88998L24.1901 9.70488L23.2403 10.9803L24.4207 12.046L23.2403 13.1116L24.1901 14.387L22.8245 15.2019L23.5072 16.6382L22.0089 17.171L22.3983 18.7128L20.8248 18.9431L20.9059 20.5312L19.3178 20.4501L19.0875 22.0236L17.5457 21.6342L17.0129 23.1325L15.5766 22.4498L14.7617 23.8154L13.4863 22.8656L12.4207 24.046L11.355 22.8656L10.0796 23.8154L9.26468 22.4498L7.82845 23.1325L7.29563 21.6342L5.75381 22.0236L5.52353 20.4501L3.93537 20.5312L4.01648 18.9431L2.44302 18.7128L2.83241 17.171L1.3341 16.6382L2.0168 15.2019L0.651231 14.387L1.60101 13.1116L0.420654 12.046L1.60101 10.9803L0.651231 9.70488L2.0168 8.88998L1.3341 7.45376L2.83241 6.92093L2.44302 5.37912L4.01648 5.14884L3.93537 3.56068L5.52353 3.64179L5.75381 2.06832L7.29563 2.45771L7.82845 0.959405L9.26468 1.6421L10.0796 0.276536L11.355 1.22631L12.4207 0.0459595Z"
        fill="currentColor" />
</svg>