<svg width="24" height="24" viewBox="0 0 24 24" fill="none" xmlns="http://www.w3.org/2000/svg">
    <rect opacity="0.5" x="2" y="2" width="20" height="13" rx="2" fill="url(#paint0_linear_1211_69)" />
    <rect x="9" y="7" width="6" height="16" rx="1" fill="url(#paint1_linear_1211_69)" />
    <path fill-rule="evenodd" clip-rule="evenodd"
        d="M4 2C2.89543 2 2 2.89543 2 4V7C2 8.10457 2.89543 9 4 9H8V8C8 6.89543 8.89543 6 10 6H14C15.1046 6 16 6.89543 16 8V9H20C21.1046 9 22 8.10457 22 7V4C22 2.89543 21.1046 2 20 2H4Z"
        fill="url(#paint2_linear_1211_69)" />
    <defs>
        <linearGradient id="paint0_linear_1211_69" x1="9" y1="4.5" x2="9" y2="15" gradientUnits="userSpaceOnUse">
            <stop stop-color="#4C00AE" />
            <stop offset="1" stop-color="#00FFE7" />
        </linearGradient>
        <linearGradient id="paint1_linear_1211_69" x1="13" y1="15" x2="17.0078" y2="11.058"
            gradientUnits="userSpaceOnUse">
            <stop stop-color="#00A2F8" />
            <stop offset="1" stop-color="#00E5CF" />
        </linearGradient>
        <linearGradient id="paint2_linear_1211_69" x1="12.5" y1="9" x2="12.5" y2="2" gradientUnits="userSpaceOnUse">
            <stop stop-color="#00A2F8" />
            <stop offset="1" stop-color="#00E5CF" />
        </linearGradient>
    </defs>
</svg>