<svg width="61" height="79" viewBox="0 0 61 79" fill="none" xmlns="http://www.w3.org/2000/svg">
    <g clip-path="url(#clip0_1356_156)">
        <path fill-rule="evenodd" clip-rule="evenodd"
            d="M42.7002 26.8689C43.3894 32.7006 40.1206 38.6511 34.1301 40.8649L30.294 42.2826C28.1225 43.0852 26.1447 44.337 24.4902 45.9564L23.7621 46.669C13.658 56.5581 15.9263 73.3137 28.8638 78.9647C30.3094 79.0285 31.7604 79.0005 33.2154 78.899C35.4561 78.7429 37.7228 78.4707 39.857 77.6716L40.1713 77.554C41.8219 76.9364 43.4786 76.3166 45.0558 75.5443C46.3803 74.8965 47.6492 74.0845 48.8116 73.1799C50.3362 71.9936 51.8323 70.738 53.1522 69.3382C54.3347 68.085 55.3585 66.6546 56.2771 65.1949C57.2453 63.6542 58.0988 62.0256 58.8315 60.3605C59.6234 58.5629 60.1347 56.6702 60.5514 54.7317C61.1469 51.9619 61.0191 49.1901 60.8915 46.4254L60.8915 46.4253C60.8802 46.1788 60.8688 45.9324 60.8579 45.686C60.7838 43.9937 60.3408 42.3003 59.9079 40.6453L59.8802 40.5395C59.415 38.7583 58.8528 36.9888 58.171 35.278C57.488 33.5649 56.6949 31.8799 55.787 30.2735C54.6472 28.2576 53.3901 26.3016 52.0939 24.3795C50.9174 22.6335 49.6461 20.9485 48.3689 19.2729C47.8165 18.5483 47.2371 17.8436 46.6578 17.1389L46.6577 17.1388C46.1582 16.5313 45.6587 15.9237 45.1765 15.3033C44.26 14.1243 43.374 12.9222 42.488 11.7201L42.0906 11.1812C41.9226 10.9534 41.7544 10.7258 41.5862 10.4981C40.6748 9.26464 39.7634 8.03116 38.884 6.77509C38.1321 5.70183 37.396 4.61753 36.6598 3.53325C36.1026 2.71254 35.5454 1.89183 34.9814 1.07592C34.8539 0.891087 34.6867 0.732448 34.5197 0.573955L34.5196 0.573846C34.4642 0.521282 34.4089 0.468732 34.355 0.415248C34.3164 0.376948 34.2575 0.36796 34.2099 0.394327C34.1733 0.414627 34.1493 0.452576 34.1471 0.494383C34.1448 0.538023 34.1423 0.581663 34.1397 0.625303C34.1315 0.766902 34.1232 0.908501 34.1232 1.0501C34.123 1.73092 34.122 2.41174 34.121 3.09256C34.1174 5.50129 34.1138 7.91002 34.1434 10.3187C34.1493 10.7717 34.3351 11.2751 34.5837 11.6635C35.4463 13.0165 37.9652 16.5349 39.3519 18.4719C39.5827 18.7943 39.7822 19.0729 39.9374 19.2904C41.6585 21.5108 42.5924 24.1664 42.7002 26.8689Z"
            fill="url(#paint0_radial_1356_156)" />
        <path fill-rule="evenodd" clip-rule="evenodd"
            d="M25.9797 14.6772C22.9656 18.8228 19.8359 22.8757 19.8359 22.8757C15.1612 29.7646 18.1907 39.2123 25.9997 42.0982L29.7118 43.4701C31.8131 44.2466 33.7268 45.458 35.3279 47.025L36.0324 47.7146C45.8097 57.2838 43.6148 73.4976 31.0957 78.9658C29.6969 79.0275 28.2928 79.0005 26.8849 78.9022C24.7166 78.7512 22.5232 78.4878 20.458 77.7145L20.1539 77.6007L20.1538 77.6006C18.5566 77.0031 16.9535 76.4033 15.4274 75.656C14.1457 75.0292 12.9178 74.2435 11.7931 73.368C10.3178 72.2201 8.86998 71.0052 7.59286 69.6506C6.4486 68.4379 5.45783 67.0538 4.56899 65.6413C3.63205 64.1505 2.80622 62.5745 2.09721 60.9633C1.33094 59.2238 0.836122 57.3923 0.43294 55.5166C-0.143358 52.8363 -0.0196329 50.1541 0.103775 47.4788C0.114778 47.2403 0.125779 47.0018 0.13628 46.7634C0.208056 45.1258 0.636706 43.4871 1.0556 41.8857L1.08238 41.7833C1.53253 40.0597 2.07659 38.3475 2.73635 36.692C3.17656 35.5878 3.66404 34.4957 4.20014 33.43C4.73653 32.3639 5.39245 31.3645 6.09874 30.4024C6.65928 29.6389 7.3532 28.7014 7.94725 27.922C8.29736 27.4716 9.90058 25.4878 11.7657 23.1799C14.6252 19.6417 18.1004 15.3416 18.6193 14.6376C19.0174 14.0988 19.4493 13.5754 19.8816 13.0515C20.4069 12.4149 20.9328 11.7776 21.3995 11.1109C22.1271 10.0723 22.8394 9.02313 23.5517 7.97394L23.5518 7.97386C24.091 7.17969 24.6302 6.38552 25.1759 5.59599C25.2993 5.41714 25.4611 5.26364 25.6227 5.11027L25.6228 5.11019C25.6764 5.05932 25.73 5.00846 25.7821 4.95669C25.8195 4.91963 25.8765 4.91094 25.9225 4.93645C25.9579 4.95609 25.9811 4.99281 25.9832 5.03327C25.9854 5.07516 25.9879 5.11705 25.9903 5.15894L25.9904 5.15996L25.9904 5.16005C25.9984 5.29704 26.0064 5.43403 26.0064 5.57101C26.0066 6.22982 26.0076 6.88862 26.0086 7.54742C26.012 9.87825 26.0155 12.2091 25.9869 14.5399C25.9863 14.5852 25.9838 14.631 25.9797 14.6772Z"
            fill="url(#paint1_radial_1356_156)" />
        <path fill-rule="evenodd" clip-rule="evenodd"
            d="M12.2349 62.6914C12.2349 63.8783 13.7788 64.0008 14.6775 63.2254C15.9103 62.1618 17.5162 61.5185 19.2723 61.5185C21.0284 61.5185 22.6342 62.1618 23.8671 63.2254C24.7658 64.0008 26.3097 63.8783 26.3097 62.6914V62.6914C26.3097 58.8048 23.1589 55.654 19.2723 55.654C15.3856 55.654 12.2349 58.8048 12.2349 62.6914V62.6914Z"
            fill="white" />
        <path fill-rule="evenodd" clip-rule="evenodd"
            d="M34.6903 62.6914C34.6903 63.8783 36.2342 64.0008 37.1329 63.2254C38.3658 62.1618 39.9716 61.5185 41.7277 61.5185C43.4838 61.5185 45.0897 62.1618 46.3226 63.2254C47.2212 64.0008 48.7651 63.8783 48.7651 62.6914V62.6914C48.7651 58.8048 45.6144 55.654 41.7277 55.654C37.8411 55.654 34.6903 58.8048 34.6903 62.6914V62.6914Z"
            fill="white" />
    </g>
    <defs>
        <radialGradient id="paint0_radial_1356_156" cx="0" cy="0" r="1" gradientUnits="userSpaceOnUse"
            gradientTransform="translate(45.6378 75.3943) rotate(-95.171) scale(62.0854 61.8518)">
            <stop stop-color="#01E5D1" />
            <stop offset="1" stop-color="#019CDE" />
        </radialGradient>
        <radialGradient id="paint1_radial_1356_156" cx="0" cy="0" r="1" gradientUnits="userSpaceOnUse"
            gradientTransform="translate(33.3272 77.073) rotate(-106.543) scale(43.0505 43.5695)">
            <stop stop-color="#01E5D1" />
            <stop offset="1" stop-color="#019CDE" />
        </radialGradient>
        <clipPath id="clip0_1356_156">
            <rect width="61" height="79" fill="white" transform="matrix(-1 0 0 1 61 0)" />
        </clipPath>
    </defs>
</svg>