<svg width="97" height="97" viewBox="0 0 97 97" fill="none" xmlns="http://www.w3.org/2000/svg">
<path d="M46.43 50.9981C55.597 50.9981 65.8199 42 61.9842 32.4198C58.1484 22.8395 55.5307 22.6694 52.9668 18.3487C50.4028 14.028 50.463 9.31569 51.1343 6.65612C51.8055 3.99655 52.8684 2 52.8684 2C52.8684 2 54.0386 6.53918 59.902 13.0675C65.7654 19.5958 68.9763 23.6602 68.9763 23.6602C69.5288 24.3711 68.4039 22.964 68.9763 23.6602C69.6402 24.4677 68.3433 22.8298 68.9763 23.6602C70.4398 25.5802 71.8965 27.511 73.2447 29.5117C74.7299 31.7141 76.1703 33.9555 77.4765 36.2654C78.5168 38.1062 79.4256 40.0369 80.2082 42C80.9895 43.9604 81.6337 45.988 82.1668 48.029L82.1985 48.1502C82.6945 50.0466 83.2021 51.9871 83.2871 53.9263C83.2996 54.2086 83.3126 54.4909 83.3256 54.7734C83.4718 57.9414 83.6183 61.1176 82.9358 64.2915C82.4584 66.5127 81.8725 68.6815 80.9651 70.7413C80.1255 72.6493 79.1475 74.5154 78.038 76.2808C76.9855 77.9534 75.8123 79.5924 74.4573 81.0284C72.9449 82.6325 71.2305 84.0712 69.4835 85.4305C68.1516 86.4672 66.6976 87.3976 65.1798 88.1398C63.3726 89.0248 61.4743 89.735 59.5829 90.4427L59.2227 90.5775C56.7772 91.4931 54.1798 91.8051 51.6122 91.9839C50.382 92.0697 49.1542 92.1097 47.9296 92.0954C46.742 92.1095 45.5514 92.0709 44.3583 91.9876C41.8738 91.8146 39.3604 91.5127 36.9939 90.6267L36.6454 90.4962C34.8153 89.8115 32.9782 89.1242 31.2295 88.2678C29.7608 87.5496 28.3538 86.6493 27.065 85.6461C25.3745 84.3308 23.7155 82.9386 22.2521 81.3864C20.9409 79.9969 19.8056 78.4109 18.7871 76.7923C17.7135 75.084 16.7672 73.2783 15.9548 71.432C15.0767 69.4388 14.5097 67.3402 14.0477 65.1908C13.3874 62.1195 13.5291 59.0461 13.6705 55.9806L13.6707 55.9765C13.6833 55.7045 13.6958 55.4326 13.7078 55.1608C13.79 53.2843 14.2812 51.4066 14.7612 49.5716L14.7919 49.4542C15.3077 47.4792 15.9312 45.5172 16.6871 43.6202C17.1916 42.3549 17.7502 41.1035 18.3645 39.8824C21.1285 34.3883 24.5699 29.0124 30.4591 22.7754C36.3483 16.5385 36.542 16.277 38.0728 14.3075C39.6037 12.3379 39.7226 11.9154 40.5387 10.7133C41.1566 9.80324 41.7857 8.826 42.4385 7.91664C43.0913 7.00727 43.1554 7.05796 43.2852 7.09824C43.415 7.13853 43.6818 9.95979 44.1905 12.7726C44.6992 15.5854 44.6737 17.0413 43.321 18.394C24.2817 39.8824 37.263 50.9981 46.43 50.9981Z" fill="url(#paint0_radial_1413_231)"/>
<path d="M46.43 50.9981C55.597 50.9981 65.8199 42 61.9842 32.4198C58.1484 22.8395 55.5307 22.6694 52.9668 18.3487C50.4028 14.028 50.463 9.31569 51.1343 6.65612C51.8055 3.99655 52.8684 2 52.8684 2C52.8684 2 54.0386 6.53918 59.902 13.0675C65.7654 19.5958 68.9763 23.6602 68.9763 23.6602C69.5288 24.3711 68.4039 22.964 68.9763 23.6602C69.6402 24.4677 68.3433 22.8298 68.9763 23.6602C70.4398 25.5802 71.8965 27.511 73.2447 29.5117C74.7299 31.7141 76.1703 33.9555 77.4765 36.2654C78.5168 38.1062 79.4256 40.0369 80.2082 42C80.9895 43.9604 81.6337 45.988 82.1668 48.029L82.1985 48.1502C82.6945 50.0466 83.2021 51.9871 83.2871 53.9263C83.2996 54.2086 83.3126 54.4909 83.3256 54.7734C83.4718 57.9414 83.6183 61.1176 82.9358 64.2915C82.4584 66.5127 81.8725 68.6815 80.9651 70.7413C80.1255 72.6493 79.1475 74.5154 78.038 76.2808C76.9855 77.9534 75.8123 79.5924 74.4573 81.0284C72.9449 82.6325 71.2305 84.0712 69.4835 85.4305C68.1516 86.4672 66.6976 87.3976 65.1798 88.1398C63.3726 89.0248 61.4743 89.735 59.5829 90.4427L59.2227 90.5775C56.7772 91.4931 54.1798 91.8051 51.6122 91.9839C50.382 92.0697 49.1542 92.1097 47.9296 92.0954C46.742 92.1095 45.5514 92.0709 44.3583 91.9876C41.8738 91.8146 39.3604 91.5127 36.9939 90.6267L36.6454 90.4962C34.8153 89.8115 32.9782 89.1242 31.2295 88.2678C29.7608 87.5496 28.3538 86.6493 27.065 85.6461C25.3745 84.3308 23.7155 82.9386 22.2521 81.3864C20.9409 79.9969 19.8056 78.4109 18.7871 76.7923C17.7135 75.084 16.7672 73.2783 15.9548 71.432C15.0767 69.4388 14.5097 67.3402 14.0477 65.1908C13.3874 62.1195 13.5291 59.0461 13.6705 55.9806L13.6707 55.9765C13.6833 55.7045 13.6958 55.4326 13.7078 55.1608C13.79 53.2843 14.2812 51.4066 14.7612 49.5716L14.7919 49.4542C15.3077 47.4792 15.9312 45.5172 16.6871 43.6202C17.1916 42.3549 17.7502 41.1035 18.3645 39.8824C21.1285 34.3883 24.5699 29.0124 30.4591 22.7754C36.3483 16.5385 36.542 16.277 38.0728 14.3075C39.6037 12.3379 39.7226 11.9154 40.5387 10.7133C41.1566 9.80324 41.7857 8.826 42.4385 7.91664C43.0913 7.00727 43.1554 7.05796 43.2852 7.09824C43.415 7.13853 43.6818 9.95979 44.1905 12.7726C44.6992 15.5854 44.6737 17.0413 43.321 18.394C24.2817 39.8824 37.263 50.9981 46.43 50.9981Z" fill="url(#paint1_radial_1413_231)" fill-opacity="0.5"/>
<path d="M46.43 50.9981C55.597 50.9981 65.8199 42 61.9842 32.4198C58.1484 22.8395 55.5307 22.6694 52.9668 18.3487C50.4028 14.028 50.463 9.31569 51.1343 6.65612C51.8055 3.99655 52.8684 2 52.8684 2C52.8684 2 54.0386 6.53918 59.902 13.0675C65.7654 19.5958 68.9763 23.6602 68.9763 23.6602C69.5288 24.3711 68.4039 22.964 68.9763 23.6602C69.6402 24.4677 68.3433 22.8298 68.9763 23.6602C70.4398 25.5802 71.8965 27.511 73.2447 29.5117C74.7299 31.7141 76.1703 33.9555 77.4765 36.2654C78.5168 38.1062 79.4256 40.0369 80.2082 42C80.9895 43.9604 81.6337 45.988 82.1668 48.029L82.1985 48.1502C82.6945 50.0466 83.2021 51.9871 83.2871 53.9263C83.2996 54.2086 83.3126 54.4909 83.3256 54.7734C83.4718 57.9414 83.6183 61.1176 82.9358 64.2915C82.4584 66.5127 81.8725 68.6815 80.9651 70.7413C80.1255 72.6493 79.1475 74.5154 78.038 76.2808C76.9855 77.9534 75.8123 79.5924 74.4573 81.0284C72.9449 82.6325 71.2305 84.0712 69.4835 85.4305C68.1516 86.4672 66.6976 87.3976 65.1798 88.1398C63.3726 89.0248 61.4743 89.735 59.5829 90.4427L59.2227 90.5775C56.7772 91.4931 54.1798 91.8051 51.6122 91.9839C50.382 92.0697 49.1542 92.1097 47.9296 92.0954C46.742 92.1095 45.5514 92.0709 44.3583 91.9876C41.8738 91.8146 39.3604 91.5127 36.9939 90.6267L36.6454 90.4962C34.8153 89.8115 32.9782 89.1242 31.2295 88.2678C29.7608 87.5496 28.3538 86.6493 27.065 85.6461C25.3745 84.3308 23.7155 82.9386 22.2521 81.3864C20.9409 79.9969 19.8056 78.4109 18.7871 76.7923C17.7135 75.084 16.7672 73.2783 15.9548 71.432C15.0767 69.4388 14.5097 67.3402 14.0477 65.1908C13.3874 62.1195 13.5291 59.0461 13.6705 55.9806L13.6707 55.9765C13.6833 55.7045 13.6958 55.4326 13.7078 55.1608C13.79 53.2843 14.2812 51.4066 14.7612 49.5716L14.7919 49.4542C15.3077 47.4792 15.9312 45.5172 16.6871 43.6202C17.1916 42.3549 17.7502 41.1035 18.3645 39.8824C21.1285 34.3883 24.5699 29.0124 30.4591 22.7754C36.3483 16.5385 36.542 16.277 38.0728 14.3075C39.6037 12.3379 39.7226 11.9154 40.5387 10.7133C41.1566 9.80324 41.7857 8.826 42.4385 7.91664C43.0913 7.00727 43.1554 7.05796 43.2852 7.09824C43.415 7.13853 43.6818 9.95979 44.1905 12.7726C44.6992 15.5854 44.6737 17.0413 43.321 18.394C24.2817 39.8824 37.263 50.9981 46.43 50.9981Z" fill="url(#paint2_radial_1413_231)"/>
<path fill-rule="evenodd" clip-rule="evenodd" d="M61.9841 32.4197C65.8199 42 55.597 50.9981 46.43 50.9981C37.263 50.9981 24.2817 39.8824 43.321 18.394C44.6737 17.0413 44.6991 15.5854 44.1905 12.7726C43.938 11.3766 43.7451 9.97847 43.599 8.9193C43.4507 7.84436 43.3505 7.11852 43.2851 7.09823C43.2817 7.09716 43.2783 7.09609 43.2749 7.09502C43.1515 7.05593 43.0739 7.03136 42.4384 7.91662C41.9994 8.52829 41.571 9.17067 41.1495 9.80264C40.9444 10.1102 40.741 10.4153 40.5387 10.7133C40.2769 11.0988 40.0869 11.4041 39.899 11.7061C39.501 12.3455 39.1126 12.9696 38.0728 14.3075L38.0313 14.3609C36.5379 16.2823 36.2946 16.5953 30.4591 22.7754C24.5698 29.0123 21.1285 34.3883 18.3644 39.8824C17.9266 40.7527 17.5171 41.6384 17.1353 42.5336C20.2322 57.5801 32.959 68.8525 48.1882 68.8525C64.0878 68.8525 77.2596 56.566 79.5935 40.5255C78.96 39.0712 78.2551 37.6431 77.4765 36.2654C76.1703 33.9555 74.7299 31.7141 73.2447 29.5117C71.8965 27.511 70.4397 25.5802 68.9762 23.6602C68.9762 23.6602 65.7654 19.5958 59.902 13.0675C55.0322 7.64548 53.3998 3.59557 52.9864 2.37865C52.8914 2.36351 52.7962 2.34882 52.701 2.33456C52.3749 3.00951 51.6424 4.64284 51.1343 6.65611C50.463 9.31568 50.4028 14.028 52.9667 18.3487C53.8477 19.8332 54.7349 20.8277 55.6758 21.8823C57.4733 23.8971 59.4663 26.1311 61.9841 32.4197Z" fill="url(#paint3_radial_1413_231)"/>
<path fill-rule="evenodd" clip-rule="evenodd" d="M46.2475 75.4415C46.2255 75.9273 45.5739 76.0242 45.3044 75.6193C43.4108 72.7746 39.9627 71.1508 36.3749 71.755C34.1681 72.1267 32.2872 73.2775 30.9668 74.8782C30.6701 75.2379 30.0621 75.1005 30.0504 74.6344C29.9423 70.3238 32.6944 66.5504 36.668 65.8811C41.0678 65.1402 45.2992 68.4856 46.119 73.3533C46.2379 74.0597 46.2785 74.7593 46.2475 75.4415Z" fill="white"/>
<path fill-rule="evenodd" clip-rule="evenodd" d="M51.0622 75.3068C51.0766 75.793 51.7266 75.9 52.0024 75.4994C53.9401 72.6846 57.413 71.1149 60.9908 71.7749C63.1917 72.181 65.0545 73.3611 66.3498 74.9823C66.6409 75.3465 67.251 75.2187 67.2699 74.7528C67.4452 70.4443 64.7523 66.6283 60.7895 65.8972C56.4017 65.0878 52.1188 68.3669 51.2232 73.2213C51.0933 73.9256 51.0418 74.6243 51.0622 75.3068Z" fill="white"/>
<defs>
<radialGradient id="paint0_radial_1413_231" cx="0" cy="0" r="1" gradientUnits="userSpaceOnUse" gradientTransform="translate(51.1172 89.2685) rotate(-106.543) scale(49.3304 49.9252)">
<stop stop-color="#00E2CF"/>
<stop offset="0.0001" stop-color="#00AE9F"/>
<stop offset="1" stop-color="#008ECB"/>
</radialGradient>
<radialGradient id="paint1_radial_1413_231" cx="0" cy="0" r="1" gradientUnits="userSpaceOnUse" gradientTransform="translate(48.5001 9.66198) rotate(90.9045) scale(82.4465 48.9013)">
<stop stop-color="#00A3FF" stop-opacity="0"/>
<stop offset="0.906569" stop-color="#5AD4FF" stop-opacity="0.565"/>
<stop offset="1" stop-color="#A0FFF9"/>
</radialGradient>
<radialGradient id="paint2_radial_1413_231" cx="0" cy="0" r="1" gradientUnits="userSpaceOnUse" gradientTransform="translate(51.4422 58.567) rotate(175.835) scale(40.642 70.8178)">
<stop stop-color="#8000FF" stop-opacity="0"/>
<stop offset="0.585" stop-color="#A346FF" stop-opacity="0.04"/>
<stop offset="0.725" stop-color="#DBB4FF" stop-opacity="0.26"/>
<stop offset="1" stop-color="#F2DCFF"/>
</radialGradient>
<radialGradient id="paint3_radial_1413_231" cx="0" cy="0" r="1" gradientUnits="userSpaceOnUse" gradientTransform="translate(48.1882 35.4262) rotate(90) scale(33.4262 20.5828)">
<stop stop-color="#00F0FF"/>
<stop offset="1" stop-color="#00F0FF" stop-opacity="0"/>
</radialGradient>
</defs>
</svg>
